<svg width="32" height="32" viewBox="0 0 32 32" fill="none" xmlns="http://www.w3.org/2000/svg">
<path d="M28.9579 23.9861L18.297 5.32964C18.0646 4.91947 17.7275 4.5783 17.3201 4.34094C16.9128 4.10358 16.4498 3.97852 15.9783 3.97852C15.5068 3.97852 15.0438 4.10358 14.6365 4.34094C14.2291 4.5783 13.892 4.91947 13.6596 5.32964L2.99873 23.9861C2.76377 24.393 2.64057 24.8548 2.64161 25.3247C2.64265 25.7946 2.7679 26.2559 3.00466 26.6617C3.24142 27.0676 3.58128 27.4037 3.98979 27.6359C4.39829 27.8681 4.86093 27.9881 5.33079 27.9839H26.6525C27.1201 27.9834 27.5793 27.8599 27.9841 27.6258C28.3889 27.3917 28.725 27.0552 28.9586 26.6501C29.1922 26.2451 29.3151 25.7856 29.3149 25.318C29.3148 24.8504 29.1917 24.3911 28.9579 23.9861Z" stroke="#5B616D" stroke-width="2.66521" stroke-linecap="round" stroke-linejoin="round"/>
<path d="M15.9912 11.9941V17.3246" stroke="#5B616D" stroke-width="2.66521" stroke-linecap="round" stroke-linejoin="round"/>
<path d="M15.9912 22.6543H16.0045" stroke="#5B616D" stroke-width="2.66521" stroke-linecap="round" stroke-linejoin="round"/>
</svg>
