<svg width="32" height="32" viewBox="0 0 32 32" fill="none" xmlns="http://www.w3.org/2000/svg">
<path d="M21.3215 27.9839V25.3187C21.3215 23.905 20.7599 22.5492 19.7603 21.5495C18.7606 20.5499 17.4048 19.9883 15.9911 19.9883H7.99546C6.58174 19.9883 5.22593 20.5499 4.22628 21.5495C3.22664 22.5492 2.66504 23.905 2.66504 25.3187V27.9839" stroke="#174C8A" stroke-width="2.66521" stroke-linecap="round" stroke-linejoin="round"/>
<path d="M11.9935 14.6589C14.9374 14.6589 17.3239 12.2724 17.3239 9.32847C17.3239 6.38456 14.9374 3.99805 11.9935 3.99805C9.0496 3.99805 6.66309 6.38456 6.66309 9.32847C6.66309 12.2724 9.0496 14.6589 11.9935 14.6589Z" stroke="#174C8A" stroke-width="2.66521" stroke-linecap="round" stroke-linejoin="round"/>
<path d="M22.6543 10.6602L29.3173 17.3232" stroke="#174C8A" stroke-width="2.66521" stroke-linecap="round" stroke-linejoin="round"/>
<path d="M29.3173 10.6602L22.6543 17.3232" stroke="#174C8A" stroke-width="2.66521" stroke-linecap="round" stroke-linejoin="round"/>
</svg>
