<svg width="28" height="28" viewBox="0 0 28 28" fill="none" xmlns="http://www.w3.org/2000/svg">
<path d="M13.9997 25.6673C20.443 25.6673 25.6663 20.444 25.6663 14.0007C25.6663 7.55733 20.443 2.33398 13.9997 2.33398C7.55635 2.33398 2.33301 7.55733 2.33301 14.0007C2.33301 20.444 7.55635 25.6673 13.9997 25.6673Z" stroke="#5B616D" stroke-width="2" stroke-linecap="round" stroke-linejoin="round"/>
<path d="M10.6045 10.5007C10.8788 9.72094 11.4202 9.06346 12.1328 8.64465C12.8454 8.22585 13.6832 8.07276 14.4979 8.2125C15.3125 8.35223 16.0514 8.77578 16.5837 9.40811C17.1161 10.0405 17.4074 10.8408 17.4062 11.6673C17.4062 14.0007 13.9062 15.1673 13.9062 15.1673M13.9995 19.834H14.0112" stroke="#5B616D" stroke-width="2" stroke-linecap="round" stroke-linejoin="round"/>
</svg>
