<svg width="32" height="32" viewBox="0 0 32 32" fill="none" xmlns="http://www.w3.org/2000/svg">
<path d="M26.6522 17.3233C26.6522 23.9863 21.9881 27.3179 16.4445 29.2501C16.1542 29.3485 15.8389 29.3438 15.5516 29.2368C9.99468 27.3179 5.33057 23.9863 5.33057 17.3233V7.99508C5.33057 7.64165 5.47097 7.3027 5.72088 7.05279C5.97079 6.80288 6.30974 6.66248 6.66317 6.66248C9.32838 6.66248 12.6599 5.06335 14.9786 3.03779C15.2609 2.79659 15.6201 2.66406 15.9914 2.66406C16.3627 2.66406 16.7219 2.79659 17.0042 3.03779C19.3362 5.07668 22.6544 6.66248 25.3196 6.66248C25.6731 6.66248 26.012 6.80288 26.2619 7.05279C26.5118 7.3027 26.6522 7.64165 26.6522 7.99508V17.3233Z" stroke="#5B616D" stroke-width="2.66521" stroke-linecap="round" stroke-linejoin="round"/>
</svg>
