<svg width="32" height="32" viewBox="0 0 32 32" fill="none" xmlns="http://www.w3.org/2000/svg">
<path d="M25.3193 22.6542H27.9845C28.7841 22.6542 29.3171 22.1211 29.3171 21.3216V17.3238C29.3171 16.1244 28.3843 15.0583 27.3182 14.7918C24.9195 14.1255 21.3215 13.3259 21.3215 13.3259C21.3215 13.3259 19.5891 11.4603 18.3898 10.2609C17.7235 9.72791 16.9239 9.32812 15.9911 9.32812H6.66285C5.86329 9.32812 5.19699 9.86117 4.79721 10.5275L2.93156 14.392C2.7551 14.9067 2.66504 15.4471 2.66504 15.9911V21.3216C2.66504 22.1211 3.19808 22.6542 3.99764 22.6542H6.66285" stroke="#5B616D" stroke-width="2.66521" stroke-linecap="round" stroke-linejoin="round"/>
<path d="M9.3283 25.3187C10.8003 25.3187 11.9935 24.1254 11.9935 22.6535C11.9935 21.1815 10.8003 19.9883 9.3283 19.9883C7.85634 19.9883 6.66309 21.1815 6.66309 22.6535C6.66309 24.1254 7.85634 25.3187 9.3283 25.3187Z" stroke="#5B616D" stroke-width="2.66521" stroke-linecap="round" stroke-linejoin="round"/>
<path d="M11.9937 22.6543H19.9893" stroke="#5B616D" stroke-width="2.66521" stroke-linecap="round" stroke-linejoin="round"/>
<path d="M22.6545 25.3187C24.1264 25.3187 25.3197 24.1254 25.3197 22.6535C25.3197 21.1815 24.1264 19.9883 22.6545 19.9883C21.1825 19.9883 19.9893 21.1815 19.9893 22.6535C19.9893 24.1254 21.1825 25.3187 22.6545 25.3187Z" stroke="#5B616D" stroke-width="2.66521" stroke-linecap="round" stroke-linejoin="round"/>
</svg>
